<svg width="20" height="22" viewBox="0 0 20 22" fill="none" xmlns="http://www.w3.org/2000/svg">
<path d="M17 0H3C2.20435 0 1.44129 0.338484 0.87868 0.94099C0.316071 1.5435 0 2.36067 0 3.21274V18.2055C0 19.0576 0.316071 19.8748 0.87868 20.4773C1.44129 21.0798 2.20435 21.4183 3 21.4183H17C17.7956 21.4183 18.5587 21.0798 19.1213 20.4773C19.6839 19.8748 20 19.0576 20 18.2055V3.21274C20 2.36067 19.6839 1.5435 19.1213 0.94099C18.5587 0.338484 17.7956 0 17 0ZM8 2.14183H12V5.49379L10.55 4.42287C10.3867 4.30772 10.1955 4.24635 10 4.24635C9.80449 4.24635 9.61328 4.30772 9.45 4.42287L8 5.49379V2.14183ZM18 18.2055C18 18.4896 17.8946 18.7619 17.7071 18.9628C17.5196 19.1636 17.2652 19.2764 17 19.2764H3C2.73478 19.2764 2.48043 19.1636 2.29289 18.9628C2.10536 18.7619 2 18.4896 2 18.2055V3.21274C2 2.92872 2.10536 2.65633 2.29289 2.45549C2.48043 2.25466 2.73478 2.14183 3 2.14183H6V7.4964C6.00048 7.69013 6.05003 7.88009 6.14336 8.04605C6.2367 8.21201 6.37032 8.34774 6.53 8.4388C6.68637 8.52478 6.86115 8.56511 7.03671 8.55571C7.21227 8.54631 7.38242 8.48751 7.53 8.38525L10 6.63966L12.45 8.38525C12.6004 8.49133 12.7748 8.55194 12.9547 8.56068C13.1346 8.56943 13.3133 8.52599 13.4721 8.43495C13.6308 8.34391 13.7637 8.20865 13.8566 8.04345C13.9495 7.87825 13.9991 7.68925 14 7.4964V2.14183H17C17.2652 2.14183 17.5196 2.25466 17.7071 2.45549C17.8946 2.65633 18 2.92872 18 3.21274V18.2055Z" fill="white"/>
</svg>
